<?xml version="1.0" standalone="no"?>
<!DOCTYPE svg PUBLIC "-//W3C//DTD SVG 20010904//EN"
 "http://www.w3.org/TR/2001/REC-SVG-20010904/DTD/svg10.dtd">
<svg version="1.0" xmlns="http://www.w3.org/2000/svg"
 width="300.000000pt" height="312.000000pt" viewBox="0 0 300.000000 312.000000"
 preserveAspectRatio="xMidYMid meet">
<metadata>
Created by potrace 1.10, written by Peter Selinger 2001-2011
</metadata>
<g transform="translate(0.000000,312.000000) scale(0.100000,-0.100000)"
fill="#000000" stroke="none">
<path d="M505 2695 c-17 -7 -92 -75 -167 -152 -107 -108 -138 -146 -138 -166
0 -33 75 -119 282 -324 l154 -151 -218 -219 c-185 -186 -218 -223 -218 -248 0
-25 24 -54 147 -177 133 -134 151 -148 182 -148 32 0 53 18 251 215 l215 215
190 -191 c231 -233 254 -251 298 -238 37 11 290 257 308 301 17 41 -4 67 -231
293 l-200 199 214 216 c118 118 217 225 221 238 10 34 -20 73 -157 208 -131
129 -156 148 -185 138 -10 -4 -116 -104 -235 -223 l-218 -216 -212 212 c-117
116 -222 215 -233 221 -14 7 -29 6 -50 -3z m260 -225 c122 -121 227 -220 234
-220 8 0 109 96 227 214 117 118 221 217 231 220 25 8 31 4 185 -150 90 -90
138 -144 138 -158 0 -14 -73 -94 -220 -241 -121 -121 -220 -224 -220 -229 0
-5 99 -108 220 -229 148 -148 220 -227 220 -241 0 -32 -281 -309 -314 -311
-21 0 -68 42 -243 217 -120 120 -222 218 -228 218 -6 0 -109 -99 -230 -220
-122 -123 -227 -220 -237 -220 -10 0 -83 66 -163 146 -108 109 -145 153 -145
171 0 19 52 76 221 244 l222 219 -184 184 c-220 218 -259 262 -259 293 0 33
280 313 313 313 6 0 110 -99 232 -220z"/>
<path d="M437 2451 l-77 -78 215 -214 c119 -118 218 -224 222 -237 3 -13 -1
-35 -8 -49 -8 -14 -107 -119 -221 -234 l-207 -207 85 -83 85 -83 222 222 c166
166 228 222 246 222 18 0 81 -56 248 -222 l223 -222 83 82 82 82 -218 218
c-192 192 -218 222 -219 251 -1 30 19 53 218 252 l219 219 -80 80 c-44 44 -86
79 -92 78 -12 -3 -373 -355 -373 -364 0 -8 -41 -44 -50 -44 -5 0 -10 -4 -10
-10 0 -15 -37 -12 -68 4 -15 8 -117 105 -227 215 -110 111 -204 201 -210 200
-5 0 -45 -36 -88 -78z m965 -291 c-117 -115 -217 -221 -222 -235 -7 -18 -6
-33 1 -48 6 -12 106 -117 222 -234 l211 -212 -74 -71 -73 -72 -216 216 c-206
205 -219 216 -255 216 -36 0 -48 -10 -254 -216 l-215 -216 -71 71 -71 71 211
213 c116 117 215 223 219 236 4 12 4 32 1 44 -3 12 -102 118 -219 235 l-214
214 71 69 c39 38 73 69 76 69 3 0 95 -90 205 -201 110 -110 213 -207 229 -215
15 -9 38 -13 50 -10 12 3 119 102 236 221 l215 215 74 -75 75 -75 -212 -210z"/>
<path d="M1975 1250 l-470 -470 -241 240 c-132 132 -246 240 -252 240 -33 0
-74 -32 -196 -155 -132 -133 -154 -164 -142 -202 3 -10 185 -197 404 -416 308
-307 403 -397 422 -397 19 0 166 141 669 644 612 613 643 645 637 672 -5 19
-59 81 -149 172 -129 129 -145 142 -177 142 -33 0 -63 -28 -505 -470z m671
315 c96 -97 144 -153 144 -167 0 -31 -1258 -1288 -1289 -1288 -16 0 -133 111
-417 394 -333 334 -394 399 -394 423 0 23 25 53 138 163 75 74 147 141 160
148 21 12 35 -1 263 -228 133 -132 246 -240 253 -240 6 0 223 212 481 470 356
356 476 470 494 470 17 0 62 -39 167 -145z"/>
<path d="M1995 1089 c-446 -447 -471 -471 -501 -466 -23 4 -81 57 -259 236
-126 127 -235 231 -241 231 -15 0 -154 -146 -154 -162 0 -12 650 -668 662
-668 11 0 1138 1125 1138 1136 0 13 -153 164 -165 164 -6 -1 -221 -213 -480
-471z m559 380 l70 -70 -561 -561 -561 -561 -321 321 c-177 177 -321 325 -321
329 0 5 31 39 69 77 l69 68 235 -236 c212 -213 238 -236 268 -236 30 0 73 40
504 470 258 258 472 470 475 470 3 0 36 -32 74 -71z"/>
</g>
</svg>
